<?xml version="1.0" standalone="no"?>
<!DOCTYPE svg PUBLIC "-//W3C//DTD SVG 20010904//EN"
 "http://www.w3.org/TR/2001/REC-SVG-20010904/DTD/svg10.dtd">
<svg version="1.0" xmlns="http://www.w3.org/2000/svg"
 width="260.000000pt" height="260.000000pt" viewBox="0 0 260.000000 260.000000"
 preserveAspectRatio="xMidYMid meet">
<metadata>
Created by potrace 1.11, written by Peter Selinger 2001-2013
</metadata>
<g transform="translate(0.000000,260.000000) scale(0.100000,-0.100000)"
fill="#000000" stroke="none">
<path d="M1272 2518 c-5 -7 -12 -24 -14 -37 -2 -17 -12 -27 -32 -32 -17 -5
-34 -15 -38 -24 -5 -8 -19 -15 -32 -15 -12 0 -31 -7 -42 -15 -10 -8 -29 -15
-40 -15 -12 0 -27 -7 -34 -15 -7 -8 -22 -15 -34 -15 -12 0 -35 -13 -51 -30
-20 -21 -38 -30 -61 -30 -17 0 -37 -6 -44 -14 -6 -8 -21 -16 -33 -18 -15 -2
-23 -11 -25 -28 -5 -33 -20 -50 -43 -50 -11 0 -28 -9 -39 -20 -11 -11 -30 -20
-42 -20 -13 0 -32 -7 -42 -15 -11 -8 -27 -15 -36 -15 -8 0 -23 -9 -33 -20 -9
-11 -28 -20 -42 -20 -30 0 -43 -37 -25 -70 6 -12 9 -24 6 -27 -11 -11 16 -33
40 -33 14 0 25 -8 29 -20 3 -11 15 -20 26 -20 11 0 28 -14 39 -32 12 -21 30
-35 47 -38 28 -5 28 -6 33 -100 l5 -95 32 -3 32 -3 3 58 3 58 83 3 c53 2 89
-1 98 -9 17 -14 19 -95 2 -106 -7 -4 -52 -6 -99 -4 -73 2 -87 0 -92 -14 -7
-16 -37 -17 -257 -4 -64 3 -95 -6 -98 -28 -3 -18 1 -23 20 -23 13 0 32 7 42
15 27 20 50 19 71 -5 10 -11 29 -20 42 -20 15 0 23 -5 21 -12 -3 -9 -34 -14
-98 -16 -82 -2 -95 0 -111 17 -16 17 -27 19 -91 14 -40 -3 -77 -9 -82 -13 -4
-5 -10 -77 -12 -162 -5 -262 -14 -360 -30 -354 -25 9 -33 -36 -31 -166 2 -114
3 -123 22 -127 27 -5 35 -19 35 -68 0 -61 15 -93 42 -93 13 0 28 4 33 8 7 4 8
159 5 447 -4 277 -2 445 4 453 11 15 219 15 248 0 10 -5 18 -20 18 -33 0 -16
6 -25 16 -25 26 0 54 19 48 34 -6 16 32 28 64 19 15 -3 21 -11 18 -20 -7 -17
17 -28 41 -19 14 6 15 9 4 15 -31 20 32 30 219 35 106 4 198 10 204 15 23 19
131 24 193 8 33 -9 109 -21 169 -27 132 -15 144 -18 124 -30 -20 -13 -2 -18
85 -25 197 -15 348 -17 372 -4 20 11 29 10 56 -4 18 -9 43 -17 57 -19 38 -4
32 -32 -7 -36 -18 -2 -34 -6 -34 -10 -1 -4 -3 -181 -4 -393 -1 -212 -5 -391
-9 -397 -4 -7 -18 -12 -30 -12 -17 0 -25 -8 -32 -32 -8 -27 -15 -34 -41 -36
-17 -2 -37 -10 -43 -18 -7 -8 -20 -14 -30 -14 -22 0 -37 -18 -42 -50 -2 -19
-11 -26 -37 -31 -19 -4 -38 -14 -43 -23 -5 -9 -17 -16 -27 -16 -9 0 -26 -7
-37 -15 -10 -8 -29 -15 -41 -15 -12 0 -27 -9 -33 -20 -7 -13 -21 -20 -41 -20
-17 0 -32 -6 -36 -15 -8 -24 -52 -42 -116 -50 -51 -7 -58 -10 -63 -34 -3 -14
-7 -31 -9 -37 -2 -6 -31 -14 -66 -18 -35 -3 -70 -13 -80 -22 -15 -13 -40 -17
-116 -16 -88 0 -99 2 -112 21 -11 17 -24 21 -73 21 -38 0 -60 4 -62 12 -3 7
-7 25 -10 40 -5 20 -14 28 -38 33 -95 18 -135 31 -151 47 -10 10 -26 18 -37
18 -11 0 -24 8 -29 19 -6 10 -25 21 -43 24 -87 15 -101 20 -105 38 -3 11 -8
20 -12 20 -3 1 -19 3 -35 5 -15 1 -30 5 -32 7 -4 3 -12 44 -13 65 -1 6 -14 12
-30 12 -16 0 -31 6 -35 15 -5 15 -56 21 -69 9 -11 -12 12 -43 35 -46 11 -2 22
-10 24 -18 5 -35 25 -71 41 -76 10 -3 30 -12 45 -20 14 -8 35 -14 47 -14 11 0
26 -9 33 -20 7 -11 22 -20 34 -20 12 0 27 -7 34 -15 7 -8 21 -15 32 -15 11 0
29 -6 41 -12 12 -7 49 -18 82 -23 59 -10 60 -11 65 -45 4 -31 9 -35 37 -38 20
-2 37 -11 43 -22 7 -13 26 -21 60 -26 28 -4 53 -11 56 -15 3 -5 16 -9 30 -9
13 0 29 -9 36 -20 19 -29 127 -29 146 0 10 16 23 20 72 20 35 0 70 6 83 14 12
8 46 16 75 19 29 3 61 12 70 20 9 8 28 17 42 19 20 2 26 9 28 35 4 36 23 51
82 64 19 5 49 11 65 15 17 4 38 15 49 26 10 11 24 17 31 14 7 -2 21 4 31 15 9
10 27 19 39 19 11 0 30 7 41 15 10 8 28 15 39 15 11 0 26 9 33 20 7 11 20 20
30 20 30 0 45 17 51 56 5 33 10 39 33 42 17 2 29 11 34 25 8 27 22 37 52 37
12 0 23 1 23 3 1 1 3 101 5 222 1 121 7 279 13 350 14 169 22 372 14 390 -3 9
-19 15 -39 15 -19 0 -51 7 -70 15 -32 13 -38 13 -60 -1 -33 -22 -132 -11 -152
17 -10 15 -26 19 -73 19 -33 0 -68 -4 -77 -9 -26 -13 -122 -21 -122 -11 0 6 9
10 20 10 13 0 24 10 30 25 6 15 17 25 29 25 11 0 26 7 35 15 8 8 26 15 39 15
27 0 37 14 29 43 -7 27 -53 18 -69 -13 -13 -25 -27 -30 -98 -33 l-40 -2 0 60
0 60 40 0 c38 0 40 -2 43 -32 4 -39 28 -44 42 -9 11 29 36 45 60 39 13 -3 19
4 24 28 8 42 23 59 51 59 17 0 26 8 34 30 7 23 16 30 35 30 20 0 29 8 41 36 8
19 14 40 12 46 -1 6 9 14 23 18 53 13 48 90 -6 90 -13 0 -28 9 -34 20 -6 11
-21 20 -33 20 -12 0 -31 7 -41 15 -11 8 -30 15 -42 15 -13 0 -29 8 -36 19 -9
12 -32 20 -70 25 -55 7 -58 9 -58 35 0 34 -17 51 -51 51 -20 0 -36 11 -59 40
-21 26 -40 40 -55 40 -13 0 -27 5 -30 10 -3 6 -21 10 -40 10 -20 0 -35 6 -39
15 -3 9 -18 15 -34 15 -16 0 -37 9 -46 19 -10 11 -28 21 -40 23 -14 2 -22 11
-24 28 -5 32 -20 50 -42 50 -10 0 -22 -6 -28 -12z m103 -127 c22 -6 57 -11 77
-11 28 0 38 -5 43 -20 4 -13 15 -20 30 -20 14 0 29 -8 35 -19 5 -11 22 -21 37
-23 27 -3 28 -5 31 -75 l3 -72 82 6 c69 5 86 3 99 -11 9 -9 27 -17 39 -19 28
-5 44 -28 35 -52 -5 -14 -13 -16 -39 -10 -17 3 -61 9 -97 13 -56 6 -70 12 -97
39 -27 28 -38 32 -94 35 -51 2 -64 0 -64 -12 0 -8 15 -18 35 -23 19 -4 46 -11
60 -14 14 -3 41 -19 61 -34 20 -16 47 -29 60 -29 12 0 30 -6 38 -14 9 -7 42
-17 73 -21 56 -6 58 -5 68 19 7 20 17 26 39 26 39 0 57 -22 36 -44 -9 -9 -27
-16 -41 -16 -21 0 -24 -4 -24 -39 0 -53 -16 -95 -34 -88 -22 8 -44 -15 -48
-48 -3 -29 -4 -30 -67 -33 -45 -2 -68 1 -80 12 -11 10 -51 17 -127 22 -95 6
-114 4 -137 -10 -22 -15 -35 -16 -109 -6 -46 7 -98 18 -117 26 -30 13 -36 13
-60 -3 -21 -14 -53 -18 -173 -20 l-147 -3 -20 27 c-12 14 -31 26 -44 27 -33 2
-28 30 7 34 18 2 30 11 33 23 5 17 21 24 45 20 4 0 12 8 18 19 6 11 8 20 5 20
-3 0 -1 9 5 20 7 12 21 20 38 20 15 0 36 7 46 15 11 8 37 15 57 15 30 0 39 5
44 21 10 30 -36 54 -59 32 -4 -5 -33 -9 -64 -10 -32 -1 -73 -3 -92 -5 -32 -3
-35 -1 -35 22 0 20 6 26 28 28 15 2 32 12 37 23 6 10 21 19 33 19 32 0 67 27
67 52 0 31 29 58 61 58 15 0 31 5 34 10 3 6 17 10 30 10 14 0 29 9 35 20 6 12
21 20 35 20 14 0 33 9 42 20 10 11 27 20 39 20 12 0 27 7 35 16 14 17 38 16
114 -5z m-659 -330 c5 -5 20 -11 34 -13 14 -2 26 -11 28 -20 3 -14 -3 -18 -26
-18 -26 0 -31 -5 -39 -37 -8 -35 -12 -38 -45 -41 -58 -5 -68 27 -36 111 8 22
17 27 42 27 18 0 36 -4 42 -9z m821 -307 c25 -7 36 -40 22 -66 -9 -16 -20 -18
-82 -16 -69 3 -72 4 -75 29 -4 33 13 46 63 52 22 2 42 4 45 5 3 1 15 -1 27 -4z
m-279 -89 c1 -44 -1 -85 -6 -92 -4 -6 -31 -13 -61 -14 -34 -2 -62 -9 -78 -22
-25 -20 -38 -20 -281 -2 -29 2 -46 19 -39 39 9 22 109 22 127 1 17 -21 37 -19
50 5 9 16 21 20 65 20 78 0 81 2 77 65 -6 84 -3 86 75 83 l68 -3 3 -80z m309
-49 c15 -8 36 -17 46 -20 14 -5 17 -14 15 -38 -3 -33 -3 -33 -63 -36 -46 -2
-62 1 -72 14 -6 9 -27 19 -45 23 -43 9 -43 33 0 42 19 4 39 12 45 18 15 15 40
14 74 -3z"/>
<path d="M1267 2334 c-9 -9 -9 -106 -1 -128 7 -19 57 -21 71 -3 6 6 10 39 9
72 l-1 60 -36 3 c-19 2 -38 0 -42 -4z"/>
<path d="M974 2176 c-7 -19 14 -58 27 -50 6 3 18 -1 27 -9 9 -8 45 -17 79 -21
56 -6 63 -5 73 14 14 26 5 40 -24 40 -13 0 -31 9 -41 20 -14 16 -31 20 -77 20
-41 0 -60 -4 -64 -14z"/>
<path d="M1271 2106 c-7 -8 -11 -25 -9 -38 3 -21 8 -23 67 -23 50 0 66 4 75
18 8 12 8 22 0 35 -15 23 -115 30 -133 8z"/>
<path d="M1138 2018 c9 -9 15 -9 24 0 9 9 7 12 -12 12 -19 0 -21 -3 -12 -12z"/>
<path d="M1424 1986 c-3 -8 -4 -31 -2 -52 3 -34 6 -39 28 -39 22 0 26 5 30 41
3 23 4 46 2 53 -5 16 -52 14 -58 -3z"/>
<path d="M950 1910 c-12 -12 -19 -27 -17 -33 4 -14 50 -21 84 -12 19 4 24 11
21 33 -2 22 -9 28 -35 30 -22 2 -38 -3 -53 -18z"/>
<path d="M1625 1920 c-11 -18 5 -50 26 -50 16 0 20 6 17 27 -3 28 -31 43 -43
23z"/>
<path d="M1303 1883 c-36 -5 -41 -14 -18 -33 11 -9 19 -9 28 -2 7 6 30 12 51
14 22 2 41 9 44 16 4 12 -32 14 -105 5z"/>
<path d="M1255 1400 c-3 -5 -15 -10 -26 -10 -46 0 -49 -131 -3 -138 26 -4 34
-27 34 -97 0 -57 -7 -71 -35 -76 -30 -6 -28 -63 3 -67 32 -5 27 -28 -7 -35
-24 -5 -30 -12 -33 -38 -4 -39 -30 -59 -55 -43 -16 10 -19 34 -23 202 -3 105
-7 193 -10 195 -3 3 -33 9 -68 13 -58 6 -62 5 -62 -13 0 -12 6 -25 13 -31 13
-11 17 -12 42 -12 13 0 15 -18 13 -122 l-3 -123 -50 -9 c-74 -14 -171 -11
-197 6 -14 10 -22 25 -23 44 0 23 -4 29 -20 27 -24 -2 -35 13 -35 49 0 24 4
27 43 30 38 3 42 6 45 31 3 22 7 27 21 22 14 -4 20 1 25 26 3 17 6 42 6 55 0
22 4 24 45 24 25 0 45 5 45 10 0 13 -73 13 -87 -1 -5 -5 -57 -13 -114 -17 -58
-4 -104 -11 -104 -17 0 -5 11 -12 25 -13 40 -6 50 -21 50 -73 l0 -49 -39 0
c-22 0 -43 -4 -46 -10 -3 -5 -16 -10 -27 -10 -40 0 -67 -71 -32 -84 9 -3 47
-6 85 -6 62 0 69 -2 69 -20 0 -10 -8 -23 -17 -28 -28 -15 -131 -23 -138 -12
-3 5 -19 10 -34 10 -39 0 -47 15 -46 90 0 62 1 65 25 68 38 6 47 18 48 68 1
24 4 49 7 54 3 4 1 20 -5 34 -11 30 -43 35 -76 12 -11 -8 -31 -16 -44 -18
l-25 -3 -3 -199 c-1 -110 -7 -205 -12 -211 -13 -16 8 -35 37 -35 13 0 36 8 50
18 24 15 60 17 281 20 235 4 255 2 274 -15 18 -16 43 -18 235 -21 204 -4 215
-3 211 15 -3 15 -15 19 -73 23 l-70 5 -5 255 c-3 140 -7 256 -8 258 -6 7 -72
0 -77 -8z"/>
<path d="M1567 1363 c-10 -10 13 -33 33 -33 26 0 45 26 24 34 -21 8 -49 8 -57
-1z"/>
<path d="M1753 1359 c-7 -7 -23 -13 -37 -14 -32 -4 -46 -13 -46 -30 0 -7 -7
-15 -15 -19 -8 -3 -15 -12 -15 -21 0 -8 7 -15 15 -15 8 0 15 5 15 10 0 6 13
10 30 10 20 0 35 8 46 25 9 14 24 25 34 25 20 0 43 23 33 33 -10 11 -48 8 -60
-4z"/>
<path d="M1895 1340 c-15 -23 17 -40 76 -40 51 0 59 3 59 19 0 14 -10 20 -46
25 -65 8 -82 8 -89 -4z"/>
<path d="M1480 1285 c-10 -12 -9 -22 4 -50 10 -19 15 -39 12 -44 -3 -4 0 -16
8 -26 19 -26 56 -11 56 23 0 15 4 33 9 41 5 8 3 24 -6 42 -11 22 -22 29 -43
29 -15 0 -33 -7 -40 -15z"/>
<path d="M1831 1251 c-19 -12 -5 -31 24 -31 22 0 40 22 28 34 -9 9 -36 7 -52
-3z"/>
<path d="M1970 1197 c0 -57 -12 -77 -45 -77 -32 0 -45 -20 -45 -67 0 -37 3
-43 24 -49 34 -8 63 3 69 26 3 13 14 20 29 20 17 0 29 8 36 25 6 14 17 26 24
26 7 1 19 2 26 3 23 2 30 27 17 69 -8 27 -18 41 -27 39 -8 -1 -23 7 -33 18
-10 11 -31 20 -47 20 -27 0 -28 -1 -28 -53z"/>
<path d="M1769 1208 c0 -2 -3 -22 -5 -45 -5 -41 -4 -43 20 -43 30 0 36 29 11
50 -8 7 -13 16 -10 20 3 5 1 11 -5 15 -5 3 -10 5 -11 3z"/>
<path d="M820 1174 c0 -8 5 -12 10 -9 6 3 10 10 10 16 0 5 -4 9 -10 9 -5 0
-10 -7 -10 -16z"/>
<path d="M1558 1119 c-3 -31 -13 -41 -50 -53 -13 -4 -18 -16 -18 -46 0 -49 20
-61 62 -37 17 9 41 17 54 17 32 0 64 34 64 68 0 36 -46 82 -82 82 -23 0 -27
-5 -30 -31z"/>
<path d="M1686 961 c-15 -10 -28 -22 -28 -27 1 -20 -33 -44 -60 -44 -32 0 -49
-27 -27 -41 8 -5 32 -6 54 -3 22 3 123 1 224 -5 200 -11 228 -6 195 30 -15 17
-33 19 -154 19 -147 0 -160 4 -160 51 0 37 -11 42 -44 20z"/>
<path d="M792 843 c-20 -8 -3 -23 28 -23 33 0 48 15 24 24 -18 7 -33 7 -52 -1z"/>
<path d="M522 813 c-25 -3 -32 -9 -30 -21 5 -25 105 -40 126 -19 8 9 12 23 9
31 -6 16 -30 18 -105 9z"/>
<path d="M956 807 c-19 -14 -19 -16 -3 -41 13 -20 26 -26 53 -26 35 0 35 1 32
38 -3 33 -6 37 -33 40 -16 2 -39 -4 -49 -11z"/>
<path d="M720 760 c0 -15 7 -20 25 -20 18 0 25 5 25 20 0 15 -7 20 -25 20 -18
0 -25 -5 -25 -20z"/>
<path d="M505 731 c-7 -12 12 -24 25 -16 11 7 4 25 -10 25 -5 0 -11 -4 -15 -9z"/>
<path d="M1104 696 c-3 -8 -4 -25 -2 -38 3 -22 7 -23 78 -22 85 2 153 14 153
29 -1 36 -216 65 -229 31z"/>
<path d="M1725 703 c-39 -6 -49 -16 -42 -45 4 -16 18 -27 46 -35 53 -17 73
-16 97 2 10 8 27 15 37 15 12 0 17 8 17 29 0 26 -3 29 -46 35 -48 6 -57 6
-109 -1z"/>
<path d="M1560 685 c-17 -20 3 -45 36 -45 20 0 24 5 24 30 0 25 -4 30 -24 30
-13 0 -29 -7 -36 -15z"/>
<path d="M1065 670 c-3 -5 -1 -10 4 -10 6 0 11 5 11 10 0 6 -2 10 -4 10 -3 0
-8 -4 -11 -10z"/>
<path d="M496 634 c-23 -22 -15 -38 20 -42 16 -1 39 -8 51 -14 17 -8 29 -8 48
0 14 7 59 12 99 12 62 0 74 -3 79 -17 2 -10 8 -26 12 -35 6 -16 1 -18 -38 -18
-42 0 -67 -17 -50 -34 12 -12 61 -6 73 9 6 7 33 17 58 20 78 10 92 15 92 31 0
15 -17 25 -48 29 -63 7 -104 20 -112 35 -8 16 -27 19 -122 22 -62 2 -120 7
-129 12 -10 4 -23 1 -33 -10z m344 -104 c0 -5 -4 -10 -10 -10 -5 0 -10 5 -10
10 0 6 5 10 10 10 6 0 10 -4 10 -10z"/>
<path d="M1974 605 c-15 -38 22 -66 61 -45 22 12 23 14 8 36 -17 27 -60 32
-69 9z"/>
<path d="M975 581 c-9 -15 14 -24 43 -16 20 5 23 8 11 16 -18 11 -46 12 -54 0z"/>
<path d="M425 566 c-24 -18 -13 -46 19 -46 15 0 30 -8 36 -20 7 -13 21 -20 41
-20 32 0 49 -27 49 -76 0 -17 5 -24 20 -24 10 0 27 -8 37 -19 17 -17 35 -23
121 -38 18 -3 35 -9 38 -14 3 -5 15 -9 27 -9 13 0 30 -9 40 -20 9 -11 26 -20
38 -20 11 0 32 -9 46 -20 20 -16 41 -20 93 -20 47 0 71 -4 80 -14 6 -8 25 -16
42 -18 25 -2 33 -9 42 -38 15 -47 52 -55 61 -13 4 15 8 34 11 41 2 8 24 12 61
12 34 0 67 6 78 14 11 7 48 17 82 21 34 4 67 13 74 21 6 8 23 14 36 14 16 0
27 7 30 20 3 11 14 20 24 20 23 0 33 16 14 24 -8 3 -21 -2 -29 -10 -12 -12
-38 -14 -123 -12 -107 3 -108 3 -111 29 -2 15 5 32 18 44 17 16 25 17 59 7 58
-18 176 -15 195 4 9 8 14 19 11 24 -6 10 12 23 35 27 21 3 41 34 38 58 -5 36
-58 32 -99 -8 -31 -30 -42 -34 -127 -45 -54 -6 -102 -8 -116 -3 -12 5 -61 7
-109 4 -62 -4 -91 -2 -102 7 -19 16 -10 30 20 30 25 0 38 19 26 39 -12 18
-120 2 -140 -21 -12 -14 -30 -18 -86 -18 -101 0 -128 -23 -40 -34 50 -6 57
-15 53 -67 -3 -43 -4 -44 -43 -50 -24 -4 -48 -2 -60 4 -11 7 -49 19 -85 28
-58 14 -65 18 -68 41 -5 43 -7 43 -189 75 -20 3 -35 13 -38 24 -5 13 -16 19
-38 19 -27 0 -35 5 -44 30 -13 33 -21 36 -48 16z"/>
<path d="M311 514 c0 -11 3 -14 6 -6 3 7 2 16 -1 19 -3 4 -6 -2 -5 -13z"/>
</g>
</svg>
